<?xml version="1.0" standalone="no"?>
<!DOCTYPE svg PUBLIC "-//W3C//DTD SVG 20010904//EN"
 "http://www.w3.org/TR/2001/REC-SVG-20010904/DTD/svg10.dtd">
<svg version="1.0" xmlns="http://www.w3.org/2000/svg"
 width="217.000000pt" height="232.000000pt" viewBox="0 0 217.000000 232.000000"
 preserveAspectRatio="xMidYMid meet">

<g transform="translate(0.000000,232.000000) scale(0.100000,-0.100000)"
fill="#000000" stroke="none">
<path d="M910 2134 c-139 -27 -290 -94 -298 -132 -3 -15 13 -7 83 36 22 14 40
24 40 22 0 -1 37 9 82 24 96 30 249 51 311 42 30 -4 48 -2 57 8 12 11 -2 14
-91 14 -75 1 -104 -2 -104 -11 0 -8 -3 -9 -8 -1 -5 7 -26 7 -72 -2z"/>
<path d="M1200 2132 c-8 -3 14 -11 50 -19 95 -20 92 -19 125 -32 17 -6 55 -21
85 -33 30 -12 67 -30 82 -41 15 -11 31 -16 39 -12 7 5 10 4 6 -2 -7 -11 83
-80 98 -75 6 2 7 1 3 -3 -10 -10 60 -68 72 -60 8 5 4 14 -9 27 -12 10 -26 16
-33 12 -6 -4 -8 -3 -5 3 9 14 -61 75 -75 67 -6 -4 -8 -3 -4 4 8 13 -60 56 -74
47 -6 -4 -9 -1 -8 7 2 7 -7 14 -19 16 -13 2 -23 9 -23 15 0 7 -4 6 -10 -3 -9
-13 -10 -13 -10 0 0 36 -235 102 -290 82z"/>
<path d="M1028 2103 c12 -2 30 -2 40 0 9 3 -1 5 -23 4 -22 0 -30 -2 -17 -4z"/>
<path d="M1113 2103 c15 -2 39 -2 55 0 15 2 2 4 -28 4 -30 0 -43 -2 -27 -4z"/>
<path d="M857 2079 c-79 -22 -180 -67 -242 -106 -77 -49 -48 -43 34 7 81 48
206 95 296 109 41 7 44 9 15 9 -19 0 -66 -8 -103 -19z"/>
<path d="M1255 2085 c78 -18 104 -17 40 1 -27 7 -61 13 -75 13 -14 0 2 -7 35
-14z"/>
<path d="M1024 2066 c-15 -16 -6 -36 16 -36 24 0 33 37 11 43 -9 2 -21 -1 -27
-7z"/>
<path d="M1165 2066 c-17 -18 -6 -45 15 -39 26 7 31 27 11 40 -11 7 -19 7 -26
-1z"/>
<path d="M1375 2057 c17 -6 73 -33 125 -59 52 -26 86 -40 75 -32 -26 21 -173
91 -205 98 -19 4 -18 2 5 -7z"/>
<path d="M886 2044 c-11 -8 -15 -14 -8 -14 6 0 9 -6 6 -14 -4 -11 0 -13 15 -9
24 6 34 28 18 41 -8 7 -18 6 -31 -4z"/>
<path d="M1304 2036 c-6 -6 -9 -17 -6 -24 6 -18 41 -15 38 3 -3 24 -20 35 -32
21z"/>
<path d="M582 2001 c-11 -7 -11 -9 2 -14 10 -4 16 -1 16 8 0 17 -1 17 -18 6z"/>
<path d="M754 2002 c-15 -9 -3 -37 16 -37 19 0 31 28 16 37 -6 4 -13 8 -16 8
-3 0 -10 -4 -16 -8z"/>
<path d="M1434 1986 c-6 -6 -9 -17 -6 -24 6 -18 41 -15 38 3 -3 24 -20 35 -32
21z"/>
<path d="M456 1899 c-48 -45 -89 -92 -92 -105 -3 -13 -9 -22 -13 -20 -8 6 -58
-68 -93 -139 -40 -79 -80 -215 -82 -277 0 -32 -4 -58 -7 -58 -12 0 -10 -93 3
-102 8 -6 9 -11 2 -14 -12 -5 -3 -114 16 -185 66 -254 228 -462 461 -589 82
-44 89 -46 89 -26 0 7 -14 19 -30 26 -17 7 -56 28 -86 46 -31 19 -60 31 -65
28 -5 -3 -8 -1 -7 4 2 5 -32 42 -75 81 -139 131 -234 302 -272 490 -17 81 -26
291 -14 291 4 0 9 19 13 42 15 94 75 244 128 321 11 15 15 27 8 27 -6 0 -8 5
-5 10 4 6 10 8 15 5 4 -3 19 10 33 28 36 47 138 146 170 165 32 19 35 32 8 32
-11 0 -58 -37 -105 -81z"/>
<path d="M635 1937 c-6 -7 -9 -19 -7 -28 4 -21 41 -14 38 7 -3 23 -20 34 -31
21z"/>
<path d="M1615 1934 c54 -55 147 -136 129 -114 -20 26 -94 95 -129 120 l-20
14 20 -20z"/>
<path d="M492 1874 l-57 -56 63 53 c34 29 62 55 62 56 0 11 -19 -4 -68 -53z"/>
<path d="M1554 1916 c-14 -15 -3 -41 18 -42 18 -2 21 26 3 43 -7 7 -14 6 -21
-1z"/>
<path d="M522 1848 c-15 -15 -3 -38 21 -38 11 0 17 3 14 7 -4 3 -2 12 3 18 13
16 -23 28 -38 13z"/>
<path d="M1770 1835 c0 -9 15 -35 34 -58 47 -58 93 -138 126 -221 22 -56 29
-66 34 -49 8 24 -9 73 -25 73 -6 0 -8 7 -5 16 10 25 -98 202 -147 243 -15 12
-17 11 -17 -4z"/>
<path d="M1657 1823 c-15 -14 -7 -42 12 -40 11 0 18 4 15 8 -2 4 1 11 7 15 8
4 7 9 -2 15 -17 11 -24 11 -32 2z"/>
<path d="M373 1743 c-22 -32 -51 -76 -63 -98 -26 -45 -70 -159 -70 -178 1 -6
15 24 32 68 32 82 94 193 131 232 11 13 18 25 15 28 -3 3 -23 -21 -45 -52z"/>
<path d="M1776 1780 c5 -8 25 -40 45 -70 50 -75 68 -112 101 -205 15 -44 25
-64 22 -46 -9 50 -57 163 -94 224 -29 48 -93 131 -74 97z"/>
<path d="M432 1748 c-13 -13 -4 -38 13 -38 18 0 25 23 10 37 -9 8 -16 8 -23 1z"/>
<path d="M1473 1700 c-12 -5 -30 -21 -39 -35 -15 -23 -16 -44 -11 -165 6 -135
22 -208 48 -211 5 -1 13 -2 18 -3 5 0 13 -4 17 -8 10 -10 55 1 76 19 9 8 14
22 11 31 -5 11 -3 13 7 7 10 -6 12 20 8 144 -5 160 -15 195 -44 157 -7 -11
-16 -17 -19 -14 -3 2 4 15 15 28 11 13 20 25 20 27 0 5 -67 33 -77 32 -4 0
-18 -4 -30 -9z m47 -76 c0 -8 3 -14 8 -14 4 0 7 -59 7 -132 0 -96 -3 -132 -12
-135 -7 -3 -13 -1 -13 4 -2 83 -14 224 -20 245 -5 17 -5 30 1 33 5 4 7 11 4
16 -3 5 1 6 9 3 9 -3 16 -12 16 -20z m-53 -41 c-3 -10 -5 -4 -5 12 0 17 2 24
5 18 2 -7 2 -21 0 -30z m96 -153 c3 -11 1 -18 -4 -14 -5 3 -9 12 -9 20 0 20 7
17 13 -6z m-103 -30 c0 -5 -2 -10 -4 -10 -3 0 -8 5 -11 10 -3 6 -1 10 4 10 6
0 11 -4 11 -10z"/>
<path d="M1637 1702 c-2 -4 -3 -16 -2 -27 1 -11 2 -42 3 -68 1 -27 6 -46 10
-43 5 3 9 -1 9 -9 0 -8 -3 -12 -7 -10 -7 4 -3 -142 6 -213 5 -43 6 -43 42 -40
30 2 37 7 35 23 -1 11 -3 53 -4 94 -2 66 0 75 17 77 10 2 22 -2 27 -9 5 -7 6
-2 2 13 -6 24 -5 24 9 6 15 -19 16 -19 24 3 4 13 7 37 5 54 -1 18 -4 54 -6 80
-2 26 -9 53 -15 59 -13 13 -149 21 -155 10z m109 -70 c15 -9 3 -94 -13 -100
-9 -2 -13 9 -13 36 0 22 -3 47 -6 56 -6 17 12 22 32 8z"/>
<path d="M1258 1683 c-45 -4 -47 -5 -45 -32 1 -18 7 -27 15 -24 6 3 12 1 12
-5 0 -6 -6 -13 -12 -15 -7 -3 -1 -6 15 -6 24 -1 27 -5 27 -33 0 -57 11 -232
16 -265 5 -30 8 -33 42 -33 l37 0 -5 87 c-4 77 -7 88 -22 85 -11 -2 -18 3 -18
12 0 20 17 29 23 14 3 -7 6 22 6 65 1 70 3 77 21 77 17 0 20 7 20 40 l0 40
-42 -2 c-24 -1 -64 -3 -90 -5z"/>
<path d="M1046 1659 c-23 -18 -26 -28 -26 -80 0 -67 23 -124 46 -115 7 3 13 2
11 -3 -1 -4 13 -22 31 -38 24 -24 32 -39 32 -67 0 -51 -26 -48 -34 4 -6 39 -8
41 -41 38 -39 -2 -43 -14 -25 -80 14 -47 21 -52 89 -49 61 2 85 15 78 43 -3
10 -1 18 5 18 9 0 4 69 -9 113 -2 10 -28 36 -56 59 -44 34 -53 38 -55 23 -2
-10 2 -21 10 -26 10 -6 10 -9 1 -9 -7 0 -16 0 -20 0 -4 0 -8 15 -9 35 0 19 3
32 8 29 4 -3 8 9 8 25 0 21 5 31 15 31 10 0 15 -10 15 -31 0 -29 2 -30 38 -27
37 3 37 3 34 43 -3 46 -39 85 -78 85 -13 0 -23 -3 -21 -7 1 -5 -2 -9 -8 -10
-5 -2 -9 2 -7 7 3 14 -2 13 -32 -11z"/>
<path d="M807 1652 l-28 -3 7 -112 c4 -62 11 -113 15 -115 5 -2 9 -8 9 -13 0
-6 -3 -8 -7 -6 -5 3 -7 -33 -5 -79 l3 -84 47 0 c78 0 92 7 92 46 0 31 -3 34
-30 34 -18 0 -33 -6 -36 -15 -8 -21 -34 -19 -34 3 0 14 2 15 10 2 8 -13 10
-12 11 5 1 11 1 24 0 28 -1 5 4 5 10 1 8 -5 9 5 4 35 -6 39 -6 41 19 41 24 0
26 4 26 41 0 38 -2 41 -24 35 -21 -5 -24 -2 -29 30 -8 48 -1 62 29 56 25 -5
30 9 18 54 -6 22 -27 25 -107 16z m38 -72 c-3 -5 -12 -10 -18 -10 -7 0 -6 4 3
10 19 12 23 12 15 0z m5 -30 c0 -5 -8 -6 -17 -3 -12 5 -15 2 -10 -10 3 -9 2
-17 -3 -17 -6 0 -10 9 -10 20 0 13 7 20 20 20 11 0 20 -4 20 -10z m-7 -84 c6
-15 -1 -26 -15 -26 -4 0 -8 9 -8 20 0 23 15 27 23 6z m-2 -109 c-10 -9 -11 -8
-5 6 3 10 9 15 12 12 3 -3 0 -11 -7 -18z"/>
<path d="M683 1553 c6 -106 1 -104 -34 15 -21 71 -21 72 -55 72 -23 0 -34 -5
-34 -14 0 -26 12 -46 27 -46 8 0 11 -5 8 -10 -4 -6 -11 -8 -16 -5 -5 4 -9 -15
-8 -42 1 -87 16 -280 22 -290 4 -6 18 -8 33 -5 l27 5 -6 91 -6 91 30 -92 c16
-51 34 -93 39 -93 5 0 7 8 4 18 -5 15 -4 15 9 -1 15 -18 16 -18 20 5 4 23 4
23 6 1 0 -13 6 -23 12 -23 6 0 8 16 5 43 -3 23 -8 94 -11 157 -3 63 -8 139
-11 168 -6 50 -7 52 -37 52 l-30 0 6 -97z m-73 50 c0 -7 -4 -13 -9 -13 -5 0
-11 6 -14 13 -3 8 1 14 9 14 8 0 14 -6 14 -14z"/>
<path d="M394 1628 c-28 -13 -44 -49 -44 -98 0 -38 2 -40 30 -40 24 0 30 -4
30 -22 0 -45 12 -6 14 43 0 32 6 54 14 57 7 2 12 -6 12 -23 0 -19 4 -26 13
-22 8 3 14 -1 14 -9 0 -7 -4 -11 -9 -8 -4 3 -8 -2 -8 -10 0 -9 6 -16 13 -16 9
0 9 -2 -1 -9 -10 -6 -11 -29 -6 -99 4 -58 11 -89 17 -85 6 3 7 1 4 -5 -4 -5
-15 -9 -25 -8 -13 2 -19 18 -26 69 -6 48 -13 67 -23 67 -8 0 -11 5 -8 10 4 6
-7 10 -24 10 -35 0 -35 1 -22 -103 10 -76 37 -117 78 -117 20 0 22 4 17 25 -4
16 -2 25 6 25 6 0 9 -4 6 -9 -8 -12 4 -41 16 -41 5 0 20 12 33 26 23 25 25 34
25 128 -1 152 -14 226 -45 254 -28 23 -66 27 -101 10z"/>
<path d="M1967 1486 c-4 -9 0 -45 8 -79 14 -62 20 -260 10 -327 -3 -19 -2 -29
1 -22 3 6 9 10 14 7 24 -15 23 240 -2 360 -13 65 -23 83 -31 61z"/>
<path d="M226 1426 c-3 -14 -8 -54 -11 -88 -4 -56 -3 -54 9 22 14 83 15 117 2
66z"/>
<path d="M1952 1400 c0 -14 2 -19 5 -12 2 6 2 18 0 25 -3 6 -5 1 -5 -13z"/>
<path d="M1963 1335 c0 -22 2 -30 4 -17 2 12 2 30 0 40 -3 9 -5 -1 -4 -23z"/>
<path d="M1973 1225 c0 -38 2 -53 4 -32 2 20 2 52 0 70 -2 17 -4 1 -4 -38z"/>
<path d="M1745 1239 c-55 -4 -152 -10 -215 -14 -63 -3 -169 -10 -235 -15 -66
-6 -129 -10 -140 -11 -11 0 -221 -12 -467 -27 l-448 -27 0 -31 c0 -18 12 -72
26 -120 81 -283 304 -506 584 -587 102 -30 220 -45 220 -28 0 6 7 11 16 11 8
0 12 -5 9 -10 -14 -23 149 -3 255 32 299 96 522 345 584 650 9 42 16 102 16
133 l0 55 -52 -2 c-29 0 -98 -4 -153 -9z m157 -72 c5 -12 2 -24 -9 -35 -12
-12 -18 -13 -21 -4 -2 6 -9 12 -16 12 -8 0 -12 9 -9 23 6 29 44 31 55 4z
m-307 -29 c61 -53 59 -225 -3 -256 -9 -5 -34 -12 -55 -16 -37 -7 -46 -25 -17
-34 7 -3 10 0 6 7 -4 6 -2 11 3 11 6 0 11 -5 11 -12 0 -6 3 -8 7 -5 3 4 12 2
20 -4 8 -7 13 -8 13 -1 0 6 20 9 45 9 l45 -2 0 -37 c0 -28 -4 -38 -16 -38 -8
0 -12 5 -9 10 3 6 -1 10 -9 10 -10 0 -17 9 -17 23 l-2 22 -4 -22 c-4 -20 -11
-23 -54 -23 l-49 0 0 -44 c0 -46 -10 -56 -55 -56 -22 0 -23 3 -30 118 -4 64
-10 169 -15 232 -4 63 -6 118 -3 123 2 4 40 7 83 7 67 0 83 -3 105 -22z m-278
-3 c40 -27 50 -69 58 -242 l8 -162 -31 -31 c-62 -61 -166 -38 -191 44 -13 41
-25 295 -16 335 13 59 116 92 172 56z m-217 -220 c6 -116 13 -220 15 -232 3
-21 0 -23 -35 -23 -36 0 -39 2 -44 33 -3 17 -7 61 -8 97 -3 70 -12 79 -63 66
-20 -5 -23 -11 -19 -43 2 -21 5 -66 8 -100 l4 -63 -38 0 c-38 0 -39 1 -44 43
-3 23 -8 89 -11 147 -3 58 -8 144 -11 191 l-6 86 33 6 c45 6 49 3 49 -42 0
-21 3 -65 6 -97 l6 -59 39 3 39 4 -6 98 -7 99 34 3 c19 2 37 1 40 -2 4 -3 12
-99 19 -215z m-313 170 c13 -14 23 -32 23 -40 0 -9 6 -12 15 -9 10 4 15 0 15
-16 0 -11 -4 -19 -9 -16 -5 4 -11 2 -13 -4 -1 -5 -18 -12 -35 -16 -27 -5 -34
-3 -39 12 -16 52 -33 63 -58 39 -29 -29 -18 -55 50 -125 83 -84 93 -102 94
-168 0 -43 -5 -57 -24 -77 -29 -29 -65 -39 -109 -31 -48 9 -78 46 -84 100 l-6
46 37 0 c31 0 36 -3 36 -23 0 -36 23 -61 48 -53 11 4 22 15 24 24 8 38 -7 65
-64 115 -33 28 -67 65 -75 81 -18 35 -20 114 -3 145 29 55 136 64 177 16z
m-467 -12 c0 -7 4 -13 8 -13 4 0 9 -13 10 -30 1 -16 -2 -30 -8 -30 -5 0 -10
10 -10 23 0 13 -3 17 -8 10 -12 -18 -42 9 -36 33 6 22 44 28 44 7z m1550 -39
c0 -8 5 -14 12 -14 6 0 3 -8 -8 -18 -23 -23 -51 -10 -51 23 0 17 5 23 23 23
14 0 24 -6 24 -14z m-1497 -98 c5 -13 2 -23 -10 -32 -10 -7 -19 -8 -21 -3 -2
5 -11 9 -20 9 -12 0 -13 3 -5 11 6 6 9 17 7 24 -8 20 40 12 49 -9z m1450 -37
c7 -26 -15 -41 -43 -31 -15 6 -19 11 -12 16 6 4 9 13 6 20 -3 9 3 14 20 14 15
0 26 -7 29 -19z m-1385 -89 c10 -17 10 -20 -3 -20 -8 0 -15 -5 -15 -10 0 -6
-7 -6 -19 1 -22 14 -17 49 8 49 9 0 22 -9 29 -20z m155 0 c3 -13 0 -20 -9 -20
-8 0 -14 9 -14 20 0 11 4 20 9 20 5 0 11 -9 14 -20z m1159 -29 c2 -9 -3 -21
-11 -27 -20 -15 -54 -5 -47 13 3 8 6 18 6 23 0 15 49 8 52 -9z m-1239 -109
c-12 -12 -18 -13 -21 -4 -2 6 -10 12 -18 12 -12 0 -12 4 -2 20 17 26 41 30 50
7 5 -12 2 -24 -9 -35z m1140 9 c-2 -6 2 -11 7 -11 6 0 10 -4 10 -10 0 -5 -6
-10 -14 -10 -8 0 -16 -4 -18 -9 -6 -19 -37 15 -32 36 6 21 51 25 47 4z m-1026
-56 c-4 -8 -2 -17 4 -21 18 -10 -24 -33 -42 -23 -23 12 -13 47 15 52 11 2 23
5 25 6 2 0 1 -6 -2 -14z m213 -35 c0 -11 -4 -20 -10 -20 -5 0 -10 9 -10 20 0
11 5 20 10 20 6 0 10 -9 10 -20z m506 -3 c1 -9 -4 -17 -12 -17 -8 0 -14 9 -14
21 0 24 22 21 26 -4z m200 15 c-3 -3 -2 -10 4 -17 6 -7 3 -17 -10 -28 -11 -9
-20 -12 -20 -7 0 6 -7 10 -16 10 -11 0 -14 5 -10 16 3 9 6 19 6 24 0 4 11 8
25 8 14 0 23 -3 21 -6z m-801 -53 c-3 -4 0 -11 6 -15 9 -5 7 -11 -5 -19 -22
-16 -59 -7 -52 12 3 8 6 18 6 23 0 4 11 8 25 8 13 0 22 -4 20 -9z m683 -29
c10 -16 10 -20 -2 -20 -8 0 -16 -6 -19 -12 -7 -22 -36 10 -30 32 7 26 35 26
51 0z m-550 -31 c8 -12 6 -20 -7 -31 -23 -20 -53 -1 -45 28 6 24 38 26 52 3z
m416 -12 c5 -20 -26 -55 -32 -36 -2 5 -11 9 -20 9 -12 0 -13 3 -5 11 6 6 9 17
7 24 -3 8 4 13 20 13 16 0 26 -7 30 -21z m-284 -12 c0 -8 6 -16 13 -18 7 -4 6
-6 -5 -6 -9 -1 -18 -6 -20 -12 -6 -19 -36 2 -34 25 1 17 7 23 24 23 12 0 22
-5 22 -12z m142 -8 c5 -11 3 -24 -5 -32 -18 -17 -43 2 -43 32 0 27 37 27 48 0z"/>
<path d="M1484 1074 c3 -9 6 -43 6 -75 l0 -60 33 3 c31 3 32 4 35 55 4 68 -10
93 -49 93 -24 0 -30 -4 -25 -16z"/>
<path d="M1540 809 c0 -5 5 -7 10 -4 6 3 10 8 10 11 0 2 -4 4 -10 4 -5 0 -10
-5 -10 -11z"/>
<path d="M1223 1064 c-6 -17 5 -265 14 -302 4 -18 11 -22 32 -20 l26 3 -3 154
c-1 94 -7 160 -13 168 -16 18 -48 16 -56 -3z"/>
<path d="M211 1134 c-2 -52 44 -215 84 -295 46 -91 109 -180 169 -239 62 -59
58 -47 -5 20 -130 138 -216 321 -242 515 l-4 30 -2 -31z"/>
<path d="M1962 1105 c0 -16 2 -22 5 -12 2 9 2 23 0 30 -3 6 -5 -1 -5 -18z"/>
<path d="M1942 1017 c-18 -77 -62 -183 -106 -251 -20 -31 -32 -56 -28 -56 29
0 157 294 150 344 -2 11 -9 -6 -16 -37z"/>
<path d="M1978 1028 c9 -9 8 -14 -2 -22 -7 -6 -21 -36 -30 -66 -10 -30 -31
-82 -47 -114 -20 -38 -27 -62 -20 -69 6 -6 13 -2 20 12 7 12 8 21 4 21 -4 0
-3 4 3 8 17 11 50 80 73 155 21 68 20 87 -2 87 -8 0 -8 -3 1 -12z"/>
<path d="M1831 714 c-17 -25 -29 -50 -25 -55 3 -5 1 -8 -3 -7 -14 5 -133 -114
-126 -125 3 -6 2 -7 -4 -4 -5 4 -38 -14 -71 -38 -34 -25 -67 -45 -72 -45 -6 0
-8 -4 -5 -10 3 -6 -1 -7 -9 -4 -10 4 -16 1 -16 -7 0 -7 -3 -10 -6 -6 -4 3 -23
-2 -43 -13 -20 -10 -63 -26 -96 -35 -59 -17 -106 -45 -75 -45 28 0 130 33 130
42 0 5 4 7 10 3 24 -15 287 145 274 167 -4 6 -3 8 3 5 13 -8 86 67 76 78 -5 4
-3 5 4 1 8 -4 29 16 58 55 46 63 51 74 37 83 -5 3 -23 -15 -41 -40z"/>
<path d="M1742 641 c-28 -33 -83 -83 -122 -112 -62 -46 -92 -73 -57 -53 64 39
204 166 231 212 15 25 -1 11 -52 -47z"/>
<path d="M523 553 c11 -18 137 -106 143 -100 3 2 -12 15 -33 28 -21 12 -56 36
-78 53 -21 17 -36 25 -32 19z"/>
<path d="M1508 455 c-3 -3 -43 -21 -89 -40 -46 -19 -78 -35 -71 -35 19 0 161
60 168 71 6 10 1 12 -8 4z"/>
<path d="M686 441 c14 -15 116 -53 109 -41 -3 5 -11 10 -16 10 -6 0 -29 9 -51
20 -46 22 -57 25 -42 11z"/>
<path d="M756 375 c-11 -30 188 -74 335 -75 105 0 169 10 169 26 0 10 -15 12
-67 7 -38 -3 -72 -9 -78 -13 -5 -4 -19 -4 -30 1 -11 4 -42 8 -70 8 -27 1 -79
9 -115 17 -36 9 -72 17 -80 18 -8 1 -25 7 -37 14 -17 9 -22 9 -27 -3z"/>
<path d="M858 373 c7 -3 16 -2 19 1 4 3 -2 6 -13 5 -11 0 -14 -3 -6 -6z"/>
<path d="M1308 373 c7 -3 16 -2 19 1 4 3 -2 6 -13 5 -11 0 -14 -3 -6 -6z"/>
<path d="M898 363 c6 -2 18 -2 25 0 6 3 1 5 -13 5 -14 0 -19 -2 -12 -5z"/>
<path d="M1198 353 c12 -2 30 -2 40 0 9 3 -1 5 -23 4 -22 0 -30 -2 -17 -4z"/>
<path d="M1048 343 c23 -2 61 -2 85 0 23 2 4 4 -43 4 -47 0 -66 -2 -42 -4z"/>
<path d="M0 75 l0 -75 1085 0 1085 0 0 75 0 75 -1085 0 -1085 0 0 -75z m183
29 c43 1 47 -1 48 -24 1 -23 2 -23 9 5 7 28 8 27 9 -12 1 -35 -2 -43 -16 -43
-15 0 -16 2 -3 10 13 8 12 10 -2 10 -10 0 -21 0 -25 -1 -5 0 -11 10 -15 23
l-6 23 -1 -22 c-1 -21 -6 -23 -51 -23 -51 0 -60 6 -38 28 9 9 9 12 -1 12 -7 0
-9 5 -6 11 4 6 13 8 21 5 8 -3 14 0 14 7 0 8 3 9 8 1 4 -6 28 -10 55 -10z
m1735 -51 c-10 -2 -28 -2 -40 0 -13 2 -5 4 17 4 22 1 32 -1 23 -4z m85 0 c-13
-2 -33 -2 -45 0 -13 2 -3 4 22 4 25 0 35 -2 23 -4z m70 0 c-7 -2 -21 -2 -30 0
-10 3 -4 5 12 5 17 0 24 -2 18 -5z"/>
<path d="M130 79 c0 -5 5 -7 10 -4 6 3 10 8 10 11 0 2 -4 4 -10 4 -5 0 -10 -5
-10 -11z"/>
</g>
</svg>
